<?xml version="1.0" encoding="UTF-8" ?>
<!DOCTYPE svg PUBLIC "-//W3C//DTD SVG 1.1//EN" "http://www.w3.org/Graphics/SVG/1.1/DTD/svg11.dtd">
<svg width="493pt" height="113pt" viewBox="0 0 1354 313" version="1.1" xmlns="http://www.w3.org/2000/svg">
<g id="white">
<path fill="#ffffff" opacity="1.00" d=" M 0.00 215.23 C 0.56 225.93 1.90 236.65 5.06 246.92 C 10.16 264.21 20.43 280.14 34.93 291.00 C 55.31 306.58 81.46 312.01 106.61 313.00 L 0.00 313.00 L 0.00 215.23 Z" />
</g>
<g id="black">
<path fill="#000000" opacity="1.00" d=" M 43.20 18.08 C 63.22 5.35 87.50 0.94 110.95 1.74 C 134.40 2.38 158.54 8.10 177.55 22.40 C 193.57 34.19 204.66 51.90 209.80 70.99 C 213.83 85.11 214.48 99.89 214.25 114.49 C 192.00 114.51 169.75 114.50 147.50 114.50 C 147.69 103.07 147.22 91.18 142.20 80.69 C 138.58 72.82 132.00 66.32 123.92 63.12 C 115.17 59.64 105.40 59.04 96.17 60.61 C 87.78 62.07 79.55 67.06 76.20 75.17 C 72.61 83.89 72.77 94.73 78.41 102.56 C 82.95 108.76 90.09 112.34 97.19 114.79 C 112.22 119.83 127.27 124.82 142.30 129.84 C 158.84 135.32 175.21 142.22 189.06 152.98 C 201.26 162.34 210.72 175.37 215.07 190.18 C 219.95 206.75 220.02 224.54 216.73 241.42 C 212.86 260.94 202.08 279.16 186.15 291.23 C 166.48 306.42 141.23 312.48 116.74 313.00 L 106.61 313.00 C 81.46 312.01 55.31 306.58 34.93 291.00 C 20.43 280.14 10.16 264.21 5.06 246.92 C 1.90 236.65 0.56 225.93 0.00 215.23 L 0.00 201.12 C 22.37 201.13 44.75 201.11 67.12 201.13 C 67.02 210.13 67.21 219.32 70.11 227.94 C 72.75 236.28 78.08 243.88 85.56 248.53 C 94.84 254.36 106.18 255.84 116.94 255.21 C 125.26 254.66 134.02 252.14 139.84 245.85 C 146.58 238.41 147.49 227.12 144.43 217.88 C 141.16 208.50 131.67 203.48 122.85 200.41 C 105.64 194.80 88.28 189.64 71.05 184.08 C 54.41 178.72 38.06 170.92 25.57 158.42 C 14.10 147.12 7.04 131.87 4.45 116.07 C 1.49 97.70 2.35 78.42 8.76 60.84 C 15.06 43.27 27.39 27.99 43.20 18.08 Z" />
<path fill="#000000" opacity="1.00" d=" M 486.18 23.28 C 504.46 8.83 527.97 2.42 550.99 1.74 C 574.42 1.08 598.69 4.75 619.20 16.67 C 634.44 25.39 646.77 38.94 654.16 54.85 C 663.02 73.35 665.11 94.22 664.50 114.49 C 642.27 114.50 620.04 114.51 597.81 114.49 C 597.95 104.51 597.68 94.28 594.22 84.80 C 591.49 77.02 586.38 69.92 579.23 65.65 C 570.51 60.37 559.90 59.16 549.91 60.10 C 541.93 60.92 533.66 64.18 528.91 70.94 C 523.68 78.49 522.82 88.69 525.84 97.27 C 529.06 105.89 537.44 111.16 545.74 114.15 C 563.48 120.24 581.34 125.96 599.08 132.06 C 617.62 138.75 636.10 147.70 649.63 162.44 C 660.39 174.02 666.67 189.28 668.46 204.89 C 670.63 223.95 668.64 243.87 660.45 261.37 C 653.38 276.66 641.27 289.42 626.70 297.79 C 609.49 307.84 589.51 312.05 569.78 313.00 L 557.45 313.00 C 536.77 312.21 515.71 308.63 497.30 298.74 C 481.54 290.46 468.49 277.13 460.84 261.03 C 451.75 242.51 449.78 221.49 450.25 201.13 C 472.65 201.12 495.04 201.11 517.44 201.13 C 517.27 211.28 517.65 221.75 521.64 231.25 C 524.78 239.08 530.60 245.86 538.08 249.82 C 547.17 254.68 557.78 255.86 567.94 255.15 C 576.40 254.51 585.33 251.70 590.92 244.97 C 596.92 237.56 597.64 226.96 594.83 218.12 C 591.88 209.30 583.30 204.17 575.04 201.11 C 565.49 197.72 555.73 194.97 546.09 191.86 C 526.59 185.58 506.17 180.68 488.96 169.07 C 474.47 159.69 463.10 145.45 457.92 128.92 C 452.46 111.55 451.82 92.76 455.15 74.91 C 458.97 54.75 469.92 35.90 486.18 23.28 Z" />
<path fill="#000000" opacity="1.00" d=" M 1047.18 6.09 C 1073.31 6.08 1099.44 6.04 1125.57 6.11 C 1125.53 40.41 1125.57 74.71 1125.56 109.01 C 1125.69 130.01 1125.28 151.04 1125.76 172.01 C 1152.08 145.25 1178.90 118.97 1205.41 92.40 C 1234.27 63.58 1263.18 34.81 1292.02 5.98 C 1311.33 25.34 1330.67 44.68 1350.03 64.00 C 1296.13 117.79 1242.23 171.57 1188.29 225.32 C 1186.63 227.02 1184.89 228.65 1183.11 230.21 C 1238.68 230.66 1294.29 230.26 1349.88 230.41 C 1349.87 256.52 1349.84 282.64 1349.89 308.76 C 1248.99 308.80 1148.08 308.79 1047.17 308.76 C 1047.21 207.87 1047.19 106.98 1047.18 6.09 Z" />
<path fill="#000000" opacity="1.00" d=" M 211.77 7.38 C 238.62 7.37 265.47 7.36 292.31 7.38 C 306.77 35.21 321.22 63.03 335.69 90.84 C 335.86 90.87 336.19 90.92 336.35 90.95 C 350.84 63.10 365.32 35.25 379.78 7.39 C 405.52 7.35 431.26 7.39 457.00 7.37 C 429.44 55.53 401.65 103.55 374.19 151.77 C 403.81 203.55 433.20 255.47 462.72 307.31 C 435.85 307.28 408.98 307.39 382.12 307.25 C 365.55 276.65 348.87 246.11 332.26 215.54 C 315.87 246.10 299.61 276.74 283.24 307.31 C 257.35 307.31 231.47 307.32 205.58 307.31 C 235.07 256.19 264.62 205.11 294.10 153.99 C 266.67 105.11 239.20 56.26 211.77 7.38 Z" />
<path fill="#000000" opacity="1.00" d=" M 672.31 7.38 C 697.24 7.37 722.18 7.36 747.11 7.39 C 757.59 71.51 767.96 135.66 778.50 199.77 L 778.87 200.27 C 779.25 200.18 780.00 199.99 780.37 199.90 C 789.94 135.73 799.38 71.55 808.93 7.37 C 831.79 7.37 854.66 7.37 877.53 7.37 C 887.06 71.64 896.56 135.90 906.09 200.16 C 906.54 200.14 907.44 200.10 907.88 200.08 C 918.47 135.86 928.83 71.60 939.34 7.38 C 962.69 7.38 986.03 7.36 1009.38 7.38 C 990.66 107.36 971.95 207.34 953.20 307.31 C 925.42 307.32 897.64 307.32 869.86 307.31 C 860.47 243.20 851.13 179.08 841.76 114.96 C 841.31 114.98 840.42 115.02 839.97 115.04 C 830.50 179.12 821.23 243.22 811.84 307.31 C 784.06 307.32 756.27 307.31 728.49 307.32 C 709.74 207.34 691.04 107.36 672.31 7.38 Z" />
<path fill="#000000" opacity="1.00" d=" M 987.51 277.67 C 994.44 274.57 1003.44 277.09 1007.43 283.64 C 1012.17 290.91 1009.94 301.91 1002.26 306.23 C 994.81 310.88 983.80 308.08 979.89 300.11 C 975.58 292.24 979.01 281.07 987.51 277.67 M 990.42 279.62 C 982.73 281.46 978.90 290.92 982.10 297.90 C 984.66 304.51 993.12 307.61 999.44 304.52 C 1005.91 301.73 1008.64 293.40 1005.92 287.08 C 1003.66 281.08 996.49 277.80 990.42 279.62 Z" />
<path fill="#000000" opacity="1.00" d=" M 987.19 283.88 C 991.00 284.05 994.93 283.40 998.66 284.43 C 1002.81 285.55 1003.04 292.73 998.51 293.45 C 1001.81 294.41 1001.19 298.22 1001.83 300.84 C 1000.31 300.77 998.82 300.74 997.33 300.69 C 996.89 299.09 996.99 297.32 996.23 295.85 C 994.95 294.72 993.03 295.36 991.50 295.18 C 991.49 297.03 991.48 298.88 991.51 300.73 C 990.06 300.74 988.61 300.75 987.19 300.75 C 987.18 295.13 987.18 289.50 987.19 283.88 M 991.51 287.42 C 991.49 288.89 991.49 290.35 991.50 291.83 C 993.45 291.67 997.27 292.49 997.32 289.55 C 997.04 286.74 993.44 287.61 991.51 287.42 Z" />
</g>
</svg>
